HIERARCHY
ROOT Hips
{
	OFFSET 0.000000 0.000000 0.000000
	CHANNELS 6 Xposition Yposition Zposition Xrotation Yrotation Zrotation
	JOINT LeftUpLeg_virtual
	{
		OFFSET 0.000000 0.000000 0.000000
		CHANNELS 3 Xrotation Yrotation Zrotation
		JOINT LeftUpLeg
		{
			OFFSET 11.394100 -6.187798 -0.413800
			CHANNELS 3 Xrotation Yrotation Zrotation
			JOINT LeftLeg
			{
				OFFSET 0.430247 -32.302673 3.732800
				CHANNELS 3 Xrotation Yrotation Zrotation
				JOINT LeftFoot
				{
					OFFSET -0.430247 -48.264931 -6.423300
					CHANNELS 3 Xrotation Yrotation Zrotation
					JOINT LeftToeBase
					{
						OFFSET 4.230900 -16.068199 23.438400
						CHANNELS 3 Xrotation Yrotation Zrotation
						JOINT LeftToe_End
						{
							OFFSET 4.510700 0.695400 19.974600
							CHANNELS 3 Xrotation Yrotation Zrotation
							End Site
							{
								OFFSET 0 0 0
							}
						}
					}
				}
			}
		}
	}
	JOINT RightUpLeg_virtual
	{
		OFFSET 0.000000 0.000000 0.000000
		CHANNELS 3 Xrotation Yrotation Zrotation
		JOINT RightUpLeg
		{
			OFFSET -11.333700 -6.187798 -0.413800
			CHANNELS 3 Xrotation Yrotation Zrotation
			JOINT RightLeg
			{
				OFFSET -0.430392 -32.302628 3.733000
				CHANNELS 3 Xrotation Yrotation Zrotation
				JOINT RightFoot
				{
					OFFSET 0.430392 -48.264973 -6.423500
					CHANNELS 3 Xrotation Yrotation Zrotation
					JOINT RightToeBase
					{
						OFFSET -4.230900 -16.068199 23.438400
						CHANNELS 3 Xrotation Yrotation Zrotation
						JOINT RightToe_End
						{
							OFFSET -4.510700 0.695400 19.974600
							CHANNELS 3 Xrotation Yrotation Zrotation
							End Site
							{
								OFFSET 0 0 0
							}
						}
					}
				}
			}
		}
	}
	JOINT Spine_virtual
	{
		OFFSET 0.000000 0.000000 0.000000
		CHANNELS 3 Xrotation Yrotation Zrotation
		JOINT Spine
		{
			OFFSET -0.002400 12.777504 0.315300
			CHANNELS 3 Xrotation Yrotation Zrotation
			JOINT Spine1
			{
				OFFSET -0.002067 5.816869 0.032633
				CHANNELS 3 Xrotation Yrotation Zrotation
				JOINT Spine1_split
				{
					OFFSET -0.002067 5.816869 0.032633
					CHANNELS 3 Xrotation Yrotation Zrotation
					JOINT Spine2
					{
						OFFSET -0.002067 5.816869 0.032633
						CHANNELS 3 Xrotation Yrotation Zrotation
						JOINT Neck_virtual
						{
							OFFSET 0.000000 0.000000 0.000000
							CHANNELS 3 Xrotation Yrotation Zrotation
							JOINT Neck
							{
								OFFSET -0.003700 21.199493 -0.826900
								CHANNELS 3 Xrotation Yrotation Zrotation
								JOINT Head
								{
									OFFSET 0.000000 20.442200 4.834800
									CHANNELS 3 Xrotation Yrotation Zrotation
									JOINT HeadTop_End
									{
										OFFSET 0.000000 34.668396 4.968400
										CHANNELS 3 Xrotation Yrotation Zrotation
										End Site
										{
											OFFSET 0 0 0
										}
									}
								}
							}
						}
						JOINT LeftShoulder_virtual
						{
							OFFSET 0.000000 0.000000 0.000000
							CHANNELS 3 Xrotation Yrotation Zrotation
							JOINT LeftShoulder
							{
								OFFSET 3.288150 8.794197 -1.372250
								CHANNELS 3 Xrotation Yrotation Zrotation
								JOINT LeftShoulder_split
								{
									OFFSET 3.288150 8.794197 -1.372250
									CHANNELS 3 Xrotation Yrotation Zrotation
									JOINT LeftArm
									{
										OFFSET 11.953299 -2.279007 -0.146200
										CHANNELS 3 Xrotation Yrotation Zrotation
										JOINT LeftForeArm
										{
											OFFSET 18.448900 0.000000 0.000000
											CHANNELS 3 Xrotation Yrotation Zrotation
											JOINT LeftHand
											{
												OFFSET 29.527798 0.000000 0.000000
												CHANNELS 3 Xrotation Yrotation Zrotation
												End Site
												{
													OFFSET 0 0 0
												}
											}
										}
									}
								}
							}
						}
						JOINT RightShoulder_virtual
						{
							OFFSET 0.000000 0.000000 0.000000
							CHANNELS 3 Xrotation Yrotation Zrotation
							JOINT RightShoulder
							{
								OFFSET -3.249400 8.794197 -1.372250
								CHANNELS 3 Xrotation Yrotation Zrotation
								JOINT RightShoulder_split
								{
									OFFSET -3.249400 8.794197 -1.372250
									CHANNELS 3 Xrotation Yrotation Zrotation
									JOINT RightArm
									{
										OFFSET -11.953299 -2.279007 -0.146200
										CHANNELS 3 Xrotation Yrotation Zrotation
										JOINT RightForeArm
										{
											OFFSET -18.448900 0.000000 0.000000
											CHANNELS 3 Xrotation Yrotation Zrotation
											JOINT RightHand
											{
												OFFSET -29.527802 0.000000 0.000000
												CHANNELS 3 Xrotation Yrotation Zrotation
												End Site
												{
													OFFSET 0 0 0
												}
											}
										}
									}
								}
							}
						}
					}
				}
			}
		}
	}
}
MOTION
Frames: 4
Frame Time: 0.03333333
0.171609 48.830894 -15.506779 0.000000 0.000000 0.000000 -1.758557 -11.301149 1.991490 -4.676219 -0.653365 12.654612 104.726102 10.621087 -0.540971 8.332068 3.445393 -9.521502 23.940042 22.062793 42.958632 0.000000 0.000000 0.000000 0.866784 -6.699076 1.009726 -14.161277 0.745231 -15.971141 91.999014 2.529905 -5.862433 10.245009 2.602124 26.628758 -20.421916 -19.702545 -53.622671 0.000000 0.000000 0.000000 -1.043496 -8.807750 0.272750 1.977927 1.571031 -0.008234 0.202656 -0.184020 0.585232 0.039737 -0.631237 0.436490 0.000000 0.000000 0.000000 0.166524 0.438463 -0.179221 -1.711049 2.129162 -1.177248 0.280385 -3.192763 0.851371 0.000000 0.000000 0.000000 -0.343783 0.405924 0.059129 0.464222 -5.028763 -21.684459 1.786262 1.495156 -3.152133 14.474504 -21.608335 -48.886208 1.259594 -27.705877 1.071281 0.000000 0.000000 0.000000 -0.735690 0.279639 -0.071013 0.437293 8.448121 22.381036 -5.615430 -4.017469 -1.918837 5.378844 5.672188 62.399106 2.659137 24.630934 0.441188 0.000000 0.000000 0.000000 
0.280303 48.748665 -15.421429 0.000000 0.000000 0.000000 -1.748512 -11.331935 1.867513 -4.665111 -0.686130 12.672333 104.886905 10.640161 -0.553300 8.205490 3.477641 -9.676910 23.884780 22.035372 42.949705 0.000000 0.000000 0.000000 0.945039 -6.682988 0.897611 -14.120953 0.721313 -15.845807 91.733819 2.506829 -5.886906 10.331343 2.496899 26.615767 -20.676262 -19.639155 -53.573914 0.000000 0.000000 0.000000 -0.964435 -8.716637 0.096670 2.013976 1.620408 0.030976 0.141963 -0.172607 0.540309 0.178763 -0.837596 0.473956 0.000000 0.000000 0.000000 0.133129 0.430107 -0.187406 -1.467630 2.275899 -1.343041 0.868225 -2.796783 0.962047 0.000000 0.000000 0.000000 -0.419796 0.419856 -0.014784 0.440194 -4.983461 -21.758020 1.757438 1.614510 -3.096266 14.846053 -21.003255 -48.988350 1.525943 -28.141611 1.170773 0.000000 0.000000 0.000000 -0.738112 0.304937 -0.074669 0.463781 8.149635 22.370895 -5.575236 -4.154496 -2.040523 5.278479 5.553632 62.222730 2.630737 24.832947 0.454569 0.000000 0.000000 0.000000 
0.365129 48.643154 -15.341618 0.000000 0.000000 0.000000 -1.762452 -11.424740 1.662963 -4.583170 -0.794413 12.774960 105.047196 10.574236 -0.564011 7.955329 3.527277 -9.790952 23.914260 22.047309 42.947034 0.000000 0.000000 0.000000 0.974449 -6.803824 0.690604 -14.093683 0.725844 -15.604131 91.533120 2.424582 -5.936613 10.377768 2.281432 26.596763 -21.020578 -19.526411 -53.524238 0.000000 0.000000 0.000000 -0.983566 -8.838647 -0.149727 1.977651 1.679782 0.044507 0.073355 -0.152520 0.539824 0.271670 -1.014147 0.559193 0.000000 0.000000 0.000000 0.097087 0.414803 -0.167650 -1.070354 2.349147 -1.214756 2.677968 -2.286322 0.850005 0.000000 0.000000 0.000000 -0.471055 0.398334 -0.055513 0.446168 -4.746230 -21.745840 1.755152 1.675791 -2.958875 15.128720 -19.619898 -49.491206 1.692651 -29.933902 1.260700 0.000000 0.000000 0.000000 -0.738613 0.303243 -0.048023 0.465433 7.698054 22.533291 -5.492956 -4.088915 -2.047016 5.057763 5.166903 61.816928 2.526137 24.843966 0.474123 0.000000 0.000000 0.000000 
0.415543 48.537697 -15.261845 0.000000 0.000000 0.000000 -1.796681 -11.517150 1.406187 -4.438900 -0.960219 12.960833 105.174634 10.437766 -0.582476 7.642486 3.620304 -9.834529 24.069168 22.107543 42.921882 0.000000 0.000000 0.000000 0.931834 -7.030887 0.428770 -14.191874 0.794456 -15.303725 91.471464 2.341880 -6.049721 10.469034 2.034653 26.688718 -21.377206 -19.409770 -53.424701 0.000000 0.000000 0.000000 -1.088164 -9.122842 -0.441087 1.860906 1.749271 0.043485 0.001028 -0.132018 0.580423 0.314949 -1.133454 0.680847 0.000000 0.000000 0.000000 0.041643 0.395848 -0.114154 -0.568669 2.368517 -0.882188 5.515265 -1.762327 0.545288 0.000000 0.000000 0.000000 -0.486050 0.349527 -0.057054 0.479199 -4.392584 -21.654430 1.813572 1.689087 -2.761666 15.413399 -17.513775 -50.284867 1.771919 -32.657050 1.384107 0.000000 0.000000 0.000000 -0.737206 0.272679 0.007989 0.447730 7.149062 22.794467 -5.367667 -3.790951 -1.982125 4.785023 4.559244 61.206766 2.358903 24.651065 0.510507 0.000000 0.000000 0.000000 
